<svg xmlns="http://www.w3.org/2000/svg" version="1.1" xmlns:xlink="http://www.w3.org/1999/xlink" xmlns:svgjs="http://svgjs.dev/svgjs" width="1500" height="1500" viewBox="0 0 1500 1500"><rect width="1500" height="1500" fill="#ffffff"></rect><g transform="matrix(0.6666666666666666,0,0,0.6666666666666666,249.39393939393938,631.144932487796)"><svg viewBox="0 0 396 94" data-background-color="#dedede" preserveAspectRatio="xMidYMid meet" height="356" width="1500" xmlns="http://www.w3.org/2000/svg" xmlns:xlink="http://www.w3.org/1999/xlink"><g id="tight-bounds" transform="matrix(1,0,0,1,0.2400000000000091,0.07461943601342114)"><svg viewBox="0 0 395.52 93.85076112797316" height="93.85076112797316" width="395.52"><g><svg viewBox="0 0 589.0968874802932 139.78355397488238" height="93.85076112797316" width="395.52"><g transform="matrix(1,0,0,1,0,19.318855867729773)"><svg viewBox="0 0 395.52 101.14584223942283" height="101.14584223942283" width="395.52"><g id="textblocktransform"><svg viewBox="0 0 395.52 101.14584223942283" height="101.14584223942283" width="395.52" id="textblock"><g><svg viewBox="0 0 395.52 66.39201309328968" height="66.39201309328968" width="395.52"><g transform="matrix(1,0,0,1,0,0)"><svg width="395.52" viewBox="0.98 -39.5 238.65 40.06" height="66.39201309328968" data-palette-color="#b10dc9"><path d="M20.24-30.66L20.24 0 10.55 0 10.55-30.66 0.98-30.66 0.98-35.16 29.81-35.16 29.81-30.66 20.24-30.66ZM44.46-13.75L44.46 0 34.76 0 34.76-35.16 44.46-35.16 44.46-18.41Q48.95-21.85 52.84-26.05 56.74-30.25 59.54-35.18L59.54-35.18 66.16-35.18Q63.57-30.76 60.23-26.93 56.88-23.1 52.95-19.82L52.95-19.82 66.99 0 56.88 0 46.31-14.94Q45.85-14.62 45.4-14.33 44.94-14.04 44.46-13.75L44.46-13.75ZM100.09 0L92.06-26.22 89.32 0 83.34 0 89.32-35.16 98.19-35.16 106.41-8.33 114.74-35.16 123.6-35.16 128.58 0 118.72 0 115.81-25.54 108.95 0 100.09 0ZM163.56-14.16L163.56-14.16Q163.56-11.96 162.98-10.03 162.39-8.11 161.35-6.47 160.32-4.83 158.85-3.53 157.39-2.22 155.64-1.32 153.9-0.42 151.91 0.07 149.92 0.56 147.82 0.56L147.82 0.56Q145.72 0.56 143.74 0.07 141.76-0.42 140.02-1.32 138.27-2.22 136.81-3.53 135.34-4.83 134.3-6.47 133.27-8.11 132.68-10.05 132.09-11.99 132.09-14.16L132.09-14.16Q132.09-16.33 132.68-18.27 133.27-20.21 134.3-21.85 135.34-23.49 136.81-24.79 138.27-26.1 140.02-27 141.76-27.91 143.74-28.39 145.72-28.88 147.82-28.88L147.82-28.88Q149.92-28.88 151.91-28.39 153.9-27.91 155.64-27 157.39-26.1 158.85-24.79 160.32-23.49 161.35-21.85 162.39-20.21 162.98-18.27 163.56-16.33 163.56-14.16ZM155.17-14.16L155.17-14.16Q155.17-15.33 155.03-16.64 154.9-17.94 154.58-19.2 154.26-20.46 153.71-21.62 153.16-22.78 152.36-23.65 151.55-24.51 150.43-25.04 149.31-25.56 147.82-25.56L147.82-25.56Q146.4-25.56 145.3-25.02 144.2-24.49 143.39-23.6 142.57-22.71 142.02-21.53 141.47-20.36 141.13-19.1 140.79-17.85 140.64-16.56 140.49-15.28 140.49-14.16L140.49-14.16Q140.49-13.04 140.64-11.76 140.79-10.47 141.13-9.2 141.47-7.93 142.02-6.77 142.57-5.62 143.39-4.72 144.2-3.83 145.3-3.3 146.4-2.76 147.82-2.76L147.82-2.76Q149.28-2.76 150.41-3.28 151.53-3.81 152.35-4.69 153.16-5.57 153.7-6.71 154.24-7.86 154.57-9.13 154.9-10.4 155.03-11.69 155.17-12.99 155.17-14.16ZM193.81-28.2L182.7 0 175.28 0 165.03-28.2 173.28-28.2 180.8-5.74 188.1-28.2 193.81-28.2ZM205.97-35.01L205.97-35.01Q205.97-34.08 205.61-33.25 205.26-32.42 204.65-31.81 204.04-31.2 203.21-30.85 202.38-30.49 201.45-30.49L201.45-30.49Q200.52-30.49 199.7-30.85 198.89-31.2 198.28-31.81 197.67-32.42 197.31-33.25 196.96-34.08 196.96-35.01L196.96-35.01Q196.96-35.94 197.31-36.76 197.67-37.57 198.28-38.18 198.89-38.79 199.7-39.15 200.52-39.5 201.45-39.5L201.45-39.5Q202.38-39.5 203.21-39.15 204.04-38.79 204.65-38.18 205.26-37.57 205.61-36.76 205.97-35.94 205.97-35.01ZM205.6-28.17L205.6 0 197.32 0 197.32-28.17 205.6-28.17ZM219.29-13.38L219.29-13.38Q220.81-13.04 222.32-12.84 223.84-12.65 225.37-12.65L225.37-12.65Q226.98-12.65 228.36-12.95 229.74-13.26 230.76-13.98 231.77-14.7 232.36-15.89 232.94-17.09 232.94-18.87L232.94-18.87Q232.94-20.31 232.55-21.51 232.16-22.71 231.39-23.56 230.62-24.41 229.5-24.89 228.38-25.37 226.89-25.37L226.89-25.37Q225.5-25.37 224.38-24.85 223.27-24.34 222.43-23.47 221.59-22.61 220.99-21.46 220.39-20.31 220-19.07 219.61-17.82 219.44-16.55 219.27-15.28 219.27-14.16L219.27-14.16Q219.27-13.96 219.27-13.77 219.27-13.57 219.29-13.38ZM239.63-18.95L239.63-18.95Q239.63-17.21 239.07-15.86 238.51-14.5 237.54-13.48 236.58-12.45 235.31-11.74 234.04-11.04 232.6-10.58 231.16-10.13 229.63-9.94 228.11-9.74 226.67-9.74L226.67-9.74Q224.84-9.74 223.05-10 221.27-10.25 219.54-10.82L219.54-10.82Q219.81-9.2 220.39-7.75 220.98-6.3 221.96-5.21 222.93-4.13 224.36-3.49 225.79-2.86 227.74-2.86L227.74-2.86Q229.04-2.86 230.21-3.25 231.38-3.64 232.36-4.35 233.33-5.05 234.08-6.03 234.82-7.01 235.29-8.2L235.29-8.2 238.85-6.88Q238.04-4.96 236.64-3.55 235.24-2.15 233.47-1.23 231.7-0.32 229.71 0.12 227.72 0.56 225.76 0.56L225.76 0.56Q222.54 0.56 219.81-0.52 217.07-1.61 215.09-3.56 213.12-5.52 211.99-8.23 210.87-10.94 210.87-14.16L210.87-14.16Q210.87-17.38 211.99-20.09 213.12-22.8 215.09-24.76 217.07-26.71 219.81-27.8 222.54-28.88 225.76-28.88L225.76-28.88Q227.33-28.88 228.96-28.66 230.6-28.44 232.14-27.97 233.67-27.49 235.04-26.73 236.41-25.98 237.42-24.87 238.43-23.75 239.03-22.29 239.63-20.83 239.63-18.95Z" opacity="1" transform="matrix(1,0,0,1,0,0)" fill="#000000" class="wordmark-text-0" data-fill-palette-color="primary" id="text-0"></path></svg></g></svg></g><g transform="matrix(1,0,0,1,163.310208,82.06557397630112)"><svg viewBox="0 0 232.209792 19.080268263121706" height="19.080268263121706" width="232.209792"><g transform="matrix(1,0,0,1,0,0)"><svg width="232.209792" viewBox="1.88 -39.5 639.0600000000001 52.51" height="19.080268263121706" data-palette-color="#374151"><path d="M32.79-10.74L32.79-10.74Q32.79-8.47 32.21-6.74 31.64-5 30.6-3.74 29.57-2.47 28.15-1.61 26.73-0.76 25.06-0.24 23.39 0.27 21.52 0.49 19.65 0.71 17.72 0.71L17.72 0.71Q15.19 0.71 13.04 0.33 10.89-0.05 9-0.87 7.1-1.68 5.36-2.98 3.61-4.27 1.88-6.13L1.88-6.13 6.86-11.18Q7.54-9.5 8.74-8.07 9.94-6.64 11.36-5.62 12.79-4.59 14.33-4 15.87-3.42 17.24-3.42L17.24-3.42Q18.85-3.42 20.26-3.65 21.68-3.88 22.73-4.42 23.78-4.96 24.38-5.85 24.98-6.74 24.98-8.08L24.98-8.08Q24.98-9.11 24.51-9.84 24.05-10.57 23.3-11.1 22.56-11.62 21.61-11.99 20.65-12.35 19.67-12.61 18.68-12.87 17.72-13.07 16.77-13.28 16.04-13.5L16.04-13.5Q14.6-13.92 13.04-14.39 11.47-14.87 9.96-15.48 8.45-16.09 7.09-16.88 5.74-17.68 4.71-18.76 3.69-19.85 3.08-21.28 2.47-22.71 2.47-24.56L2.47-24.56Q2.47-26.78 3.02-28.5 3.56-30.22 4.57-31.49 5.57-32.76 6.93-33.63 8.3-34.5 9.94-35.02 11.57-35.55 13.42-35.78 15.26-36.01 17.19-36.01L17.19-36.01Q19.82-36.01 21.98-35.52 24.15-35.03 25.98-34.13 27.81-33.23 29.33-31.97 30.86-30.71 32.2-29.17L32.2-29.17 27.22-24.12Q26.64-25.88 25.6-27.29 24.56-28.71 23.29-29.72 22.02-30.74 20.63-31.29 19.24-31.84 17.94-31.84L17.94-31.84Q16.26-31.84 14.84-31.6 13.43-31.37 12.41-30.85 11.4-30.32 10.84-29.43 10.28-28.54 10.28-27.22L10.28-27.22Q10.28-26.17 10.69-25.44 11.11-24.71 11.8-24.19 12.5-23.68 13.38-23.35 14.26-23.02 15.2-22.78 16.14-22.53 17.05-22.35 17.97-22.17 18.73-21.95L18.73-21.95Q20.19-21.53 21.8-21.07 23.41-20.61 24.98-19.98 26.54-19.36 27.95-18.55 29.37-17.75 30.44-16.64 31.52-15.53 32.15-14.07 32.79-12.62 32.79-10.74ZM67.87-14.16L67.87-14.16Q67.87-11.08 66.94-8.4 66.01-5.71 64.26-3.72 62.5-1.73 59.96-0.59 57.42 0.56 54.2 0.56L54.2 0.56Q51.73 0.56 49.67-0.4 47.6-1.37 46.14-3.37L46.14-3.37 46.14 13.01 37.89 13.01 37.89-28.2 41.06-28.2 44.72-22.07Q45.26-23.61 46.2-24.87 47.14-26.12 48.37-27.01 49.61-27.91 51.08-28.39 52.56-28.88 54.2-28.88L54.2-28.88Q57.42-28.88 59.96-27.73 62.5-26.59 64.26-24.6 66.01-22.61 66.94-19.92 67.87-17.24 67.87-14.16ZM59.49-14.16L59.49-14.16Q59.49-15.23 59.38-16.44 59.27-17.65 59.01-18.85 58.74-20.04 58.26-21.14 57.79-22.24 57.05-23.08 56.32-23.93 55.28-24.43 54.25-24.93 52.88-24.93L52.88-24.93Q51.46-24.93 50.42-24.44 49.39-23.95 48.64-23.11 47.9-22.27 47.42-21.18 46.95-20.09 46.68-18.9 46.41-17.7 46.3-16.48 46.19-15.26 46.19-14.16L46.19-14.16Q46.19-13.18 46.34-12 46.48-10.82 46.8-9.62 47.12-8.42 47.63-7.3 48.14-6.18 48.89-5.3 49.63-4.42 50.62-3.89 51.61-3.37 52.88-3.37L52.88-3.37Q54.27-3.37 55.3-3.87 56.32-4.37 57.05-5.21 57.79-6.05 58.26-7.15 58.74-8.25 59.01-9.45 59.27-10.64 59.38-11.87 59.49-13.09 59.49-14.16ZM79.95-13.38L79.95-13.38Q81.46-13.04 82.98-12.84 84.49-12.65 86.03-12.65L86.03-12.65Q87.64-12.65 89.02-12.95 90.4-13.26 91.41-13.98 92.43-14.7 93.01-15.89 93.6-17.09 93.6-18.87L93.6-18.87Q93.6-20.31 93.21-21.51 92.82-22.71 92.05-23.56 91.28-24.41 90.16-24.89 89.03-25.37 87.54-25.37L87.54-25.37Q86.15-25.37 85.04-24.85 83.93-24.34 83.09-23.47 82.25-22.61 81.65-21.46 81.05-20.31 80.66-19.07 80.27-17.82 80.1-16.55 79.93-15.28 79.93-14.16L79.93-14.16Q79.93-13.96 79.93-13.77 79.93-13.57 79.95-13.38ZM100.29-18.95L100.29-18.95Q100.29-17.21 99.73-15.86 99.16-14.5 98.2-13.48 97.24-12.45 95.97-11.74 94.7-11.04 93.26-10.58 91.82-10.13 90.29-9.94 88.76-9.74 87.32-9.74L87.32-9.74Q85.49-9.74 83.71-10 81.93-10.25 80.2-10.82L80.2-10.82Q80.46-9.2 81.05-7.75 81.64-6.3 82.61-5.21 83.59-4.13 85.02-3.49 86.45-2.86 88.4-2.86L88.4-2.86Q89.69-2.86 90.86-3.25 92.04-3.64 93.01-4.35 93.99-5.05 94.73-6.03 95.48-7.01 95.94-8.2L95.94-8.2 99.51-6.88Q98.7-4.96 97.3-3.55 95.89-2.15 94.12-1.23 92.35-0.32 90.36 0.12 88.37 0.56 86.42 0.56L86.42 0.56Q83.2 0.56 80.46-0.52 77.73-1.61 75.75-3.56 73.77-5.52 72.65-8.23 71.53-10.94 71.53-14.16L71.53-14.16Q71.53-17.38 72.65-20.09 73.77-22.8 75.75-24.76 77.73-26.71 80.46-27.8 83.2-28.88 86.42-28.88L86.42-28.88Q87.98-28.88 89.62-28.66 91.25-28.44 92.79-27.97 94.33-27.49 95.7-26.73 97.07-25.98 98.08-24.87 99.09-23.75 99.69-22.29 100.29-20.83 100.29-18.95ZM112.22-13.38L112.22-13.38Q113.74-13.04 115.25-12.84 116.76-12.65 118.3-12.65L118.3-12.65Q119.91-12.65 121.29-12.95 122.67-13.26 123.69-13.98 124.7-14.7 125.29-15.89 125.87-17.09 125.87-18.87L125.87-18.87Q125.87-20.31 125.48-21.51 125.09-22.71 124.32-23.56 123.55-24.41 122.43-24.89 121.31-25.37 119.82-25.37L119.82-25.37Q118.43-25.37 117.31-24.85 116.2-24.34 115.36-23.47 114.52-22.61 113.92-21.46 113.32-20.31 112.93-19.07 112.54-17.82 112.37-16.55 112.2-15.28 112.2-14.16L112.2-14.16Q112.2-13.96 112.2-13.77 112.2-13.57 112.22-13.38ZM132.56-18.95L132.56-18.95Q132.56-17.21 132-15.86 131.44-14.5 130.47-13.48 129.51-12.45 128.24-11.74 126.97-11.04 125.53-10.58 124.09-10.13 122.56-9.94 121.04-9.74 119.6-9.74L119.6-9.74Q117.77-9.74 115.98-10 114.2-10.25 112.47-10.82L112.47-10.82Q112.74-9.2 113.32-7.75 113.91-6.3 114.89-5.21 115.86-4.13 117.29-3.49 118.72-2.86 120.67-2.86L120.67-2.86Q121.97-2.86 123.14-3.25 124.31-3.64 125.29-4.35 126.26-5.05 127.01-6.03 127.75-7.01 128.22-8.2L128.22-8.2 131.78-6.88Q130.97-4.96 129.57-3.55 128.17-2.15 126.4-1.23 124.63-0.32 122.64 0.12 120.65 0.56 118.69 0.56L118.69 0.56Q115.47 0.56 112.74-0.52 110-1.61 108.02-3.56 106.05-5.52 104.92-8.23 103.8-10.94 103.8-14.16L103.8-14.16Q103.8-17.38 104.92-20.09 106.05-22.8 108.02-24.76 110-26.71 112.74-27.8 115.47-28.88 118.69-28.88L118.69-28.88Q120.26-28.88 121.89-28.66 123.53-28.44 125.07-27.97 126.6-27.49 127.97-26.73 129.34-25.98 130.35-24.87 131.36-23.75 131.96-22.29 132.56-20.83 132.56-18.95ZM166.13-38.57L166.13 0 162.95 0 159.29-6.13Q158.75-4.59 157.81-3.34 156.87-2.1 155.64-1.21 154.41-0.32 152.93 0.17 151.45 0.66 149.82 0.66L149.82 0.66Q146.6 0.66 144.06-0.49 141.52-1.64 139.76-3.63 138-5.62 137.07-8.3 136.15-10.99 136.15-14.06L136.15-14.06Q136.15-17.14 137.07-19.82 138-22.51 139.76-24.49 141.52-26.46 144.06-27.61 146.6-28.76 149.82-28.76L149.82-28.76Q152.28-28.76 154.35-27.81 156.41-26.86 157.88-24.83L157.88-24.83 157.88-38.57 166.13-38.57ZM157.83-14.06L157.83-14.06Q157.83-15.04 157.68-16.21 157.53-17.38 157.22-18.58 156.9-19.78 156.39-20.9 155.87-22.02 155.13-22.9 154.38-23.78 153.4-24.3 152.41-24.83 151.14-24.83L151.14-24.83Q149.75-24.83 148.72-24.33 147.7-23.83 146.96-22.99 146.23-22.14 145.75-21.04 145.28-19.95 145.01-18.75 144.74-17.55 144.63-16.35 144.52-15.14 144.52-14.06L144.52-14.06Q144.52-12.99 144.63-11.78 144.74-10.57 145.01-9.38 145.28-8.18 145.75-7.07 146.23-5.96 146.96-5.11 147.7-4.27 148.72-3.77 149.75-3.27 151.14-3.27L151.14-3.27Q152.53-3.27 153.58-3.76 154.63-4.25 155.37-5.09 156.12-5.93 156.59-7.02 157.07-8.11 157.34-9.31 157.61-10.52 157.72-11.74 157.83-12.96 157.83-14.06ZM215.56-28.2L215.56 0 207.31 0 207.31-3.37Q205.84-1.37 203.78-0.4 201.72 0.56 199.25 0.56L199.25 0.56Q196.03 0.56 193.49-0.59 190.95-1.73 189.19-3.72 187.44-5.71 186.51-8.4 185.58-11.08 185.58-14.16L185.58-14.16Q185.58-17.24 186.51-19.92 187.44-22.61 189.19-24.6 190.95-26.59 193.49-27.73 196.03-28.88 199.25-28.88L199.25-28.88Q200.89-28.88 202.37-28.39 203.84-27.91 205.08-27.01 206.31-26.12 207.25-24.87 208.19-23.61 208.73-22.07L208.73-22.07 212.39-28.2 215.56-28.2ZM207.26-14.16L207.26-14.16Q207.26-15.26 207.15-16.48 207.04-17.7 206.77-18.9 206.5-20.09 206.03-21.18 205.55-22.27 204.81-23.11 204.06-23.95 203.01-24.44 201.96-24.93 200.57-24.93L200.57-24.93Q199.18-24.93 198.15-24.43 197.13-23.93 196.4-23.08 195.66-22.24 195.19-21.14 194.71-20.04 194.44-18.85 194.17-17.65 194.06-16.44 193.95-15.23 193.95-14.16L193.95-14.16Q193.95-13.09 194.06-11.87 194.17-10.64 194.44-9.45 194.71-8.25 195.19-7.15 195.66-6.05 196.4-5.21 197.13-4.37 198.15-3.87 199.18-3.37 200.57-3.37L200.57-3.37Q201.84-3.37 202.83-3.89 203.82-4.42 204.56-5.3 205.31-6.18 205.82-7.3 206.33-8.42 206.65-9.62 206.97-10.82 207.11-12 207.26-13.18 207.26-14.16ZM251.28-16.16L251.28-16.16Q251.28-13.31 250.58-10.21 249.88-7.1 248.64-4.13 247.39-1.15 245.66 1.48 243.93 4.1 241.85 6.01L241.85 6.01 238.75 4.32Q239.41 3.1 240 1.59 240.58 0.07 241.06-1.62 241.54-3.32 241.91-5.13 242.29-6.93 242.55-8.7 242.8-10.47 242.94-12.15 243.07-13.82 243.07-15.26L243.07-15.26Q243.07-16.21 243-17.3 242.93-18.38 242.69-19.47 242.46-20.56 242.07-21.56 241.68-22.56 241.03-23.32 240.39-24.07 239.47-24.54 238.56-25 237.31-25L237.31-25Q236.09-25 235.14-24.45 234.19-23.9 233.45-23.01 232.72-22.12 232.2-20.97 231.67-19.82 231.34-18.62 231.01-17.41 230.87-16.24 230.72-15.06 230.72-14.14L230.72-14.14 230.72 0 222.44 0 222.44-28.2 225.62-28.2 229.4-21.63Q230.09-23.27 231.11-24.61 232.14-25.95 233.43-26.9 234.72-27.86 236.3-28.37 237.87-28.88 239.7-28.88L239.7-28.88Q242.63-28.88 244.81-27.93 246.98-26.98 248.42-25.28 249.86-23.58 250.57-21.25 251.28-18.92 251.28-16.16ZM285.14-38.57L285.14 0 281.96 0 278.3-6.13Q277.76-4.59 276.82-3.34 275.88-2.1 274.65-1.21 273.42-0.32 271.94 0.17 270.46 0.66 268.83 0.66L268.83 0.66Q265.61 0.66 263.07-0.49 260.53-1.64 258.77-3.63 257.01-5.62 256.08-8.3 255.16-10.99 255.16-14.06L255.16-14.06Q255.16-17.14 256.08-19.82 257.01-22.51 258.77-24.49 260.53-26.46 263.07-27.61 265.61-28.76 268.83-28.76L268.83-28.76Q271.29-28.76 273.36-27.81 275.42-26.86 276.88-24.83L276.88-24.83 276.88-38.57 285.14-38.57ZM276.84-14.06L276.84-14.06Q276.84-15.04 276.69-16.21 276.54-17.38 276.23-18.58 275.91-19.78 275.4-20.9 274.88-22.02 274.14-22.9 273.39-23.78 272.4-24.3 271.42-24.83 270.15-24.83L270.15-24.83Q268.75-24.83 267.73-24.33 266.7-23.83 265.97-22.99 265.24-22.14 264.76-21.04 264.29-19.95 264.02-18.75 263.75-17.55 263.64-16.35 263.53-15.14 263.53-14.06L263.53-14.06Q263.53-12.99 263.64-11.78 263.75-10.57 264.02-9.38 264.29-8.18 264.76-7.07 265.24-5.96 265.97-5.11 266.7-4.27 267.73-3.77 268.75-3.27 270.15-3.27L270.15-3.27Q271.54-3.27 272.59-3.76 273.64-4.25 274.38-5.09 275.13-5.93 275.6-7.02 276.08-8.11 276.35-9.31 276.62-10.52 276.73-11.74 276.84-12.96 276.84-14.06ZM332.2-21.22L332.2-21.22 328.64-19.8Q327.78-22.49 325.78-23.93 323.78-25.37 320.97-25.37L320.97-25.37Q319.46-25.37 318.27-24.89 317.09-24.41 316.2-23.58 315.31-22.75 314.68-21.66 314.06-20.56 313.67-19.31 313.28-18.07 313.11-16.74 312.94-15.41 312.94-14.16L312.94-14.16Q312.94-12.82 313.09-11.45 313.23-10.08 313.59-8.83 313.94-7.57 314.53-6.48 315.11-5.4 316-4.59 316.89-3.78 318.13-3.32 319.36-2.86 320.97-2.86L320.97-2.86Q322.27-2.86 323.44-3.25 324.61-3.64 325.59-4.35 326.56-5.05 327.32-6.03 328.08-7.01 328.52-8.2L328.52-8.2 332.1-6.88Q331.3-4.96 329.97-3.55 328.64-2.15 326.95-1.23 325.27-0.32 323.34 0.12 321.41 0.56 319.43 0.56L319.43 0.56Q316.23 0.56 313.5-0.52 310.77-1.61 308.78-3.58 306.79-5.54 305.66-8.24 304.54-10.94 304.54-14.16L304.54-14.16Q304.54-17.41 305.65-20.12 306.76-22.83 308.74-24.78 310.72-26.73 313.45-27.81 316.19-28.88 319.43-28.88L319.43-28.88Q321.48-28.88 323.44-28.43 325.39-27.98 327.06-27.04 328.73-26.1 330.07-24.66 331.4-23.22 332.2-21.22ZM366.87-14.16L366.87-14.16Q366.87-11.96 366.28-10.03 365.7-8.11 364.66-6.47 363.62-4.83 362.16-3.53 360.69-2.22 358.94-1.32 357.2-0.42 355.21 0.07 353.22 0.56 351.12 0.56L351.12 0.56Q349.02 0.56 347.04 0.07 345.07-0.42 343.32-1.32 341.57-2.22 340.11-3.53 338.64-4.83 337.61-6.47 336.57-8.11 335.98-10.05 335.4-11.99 335.4-14.16L335.4-14.16Q335.4-16.33 335.98-18.27 336.57-20.21 337.61-21.85 338.64-23.49 340.11-24.79 341.57-26.1 343.32-27 345.07-27.91 347.04-28.39 349.02-28.88 351.12-28.88L351.12-28.88Q353.22-28.88 355.21-28.39 357.2-27.91 358.94-27 360.69-26.1 362.16-24.79 363.62-23.49 364.66-21.85 365.7-20.21 366.28-18.27 366.87-16.33 366.87-14.16ZM358.47-14.16L358.47-14.16Q358.47-15.33 358.33-16.64 358.2-17.94 357.88-19.2 357.57-20.46 357.02-21.62 356.47-22.78 355.66-23.65 354.86-24.51 353.73-25.04 352.61-25.56 351.12-25.56L351.12-25.56Q349.7-25.56 348.61-25.02 347.51-24.49 346.69-23.6 345.87-22.71 345.32-21.53 344.77-20.36 344.43-19.1 344.09-17.85 343.94-16.56 343.8-15.28 343.8-14.16L343.8-14.16Q343.8-13.04 343.94-11.76 344.09-10.47 344.43-9.2 344.77-7.93 345.32-6.77 345.87-5.62 346.69-4.72 347.51-3.83 348.61-3.3 349.7-2.76 351.12-2.76L351.12-2.76Q352.58-2.76 353.71-3.28 354.83-3.81 355.65-4.69 356.47-5.57 357-6.71 357.54-7.86 357.87-9.13 358.2-10.4 358.33-11.69 358.47-12.99 358.47-14.16ZM400.9-16.16L400.9-16.16Q400.9-13.31 400.2-10.21 399.51-7.1 398.26-4.13 397.02-1.15 395.28 1.48 393.55 4.1 391.47 6.01L391.47 6.01 388.37 4.32Q389.03 3.1 389.62 1.59 390.2 0.07 390.68-1.62 391.16-3.32 391.53-5.13 391.91-6.93 392.17-8.7 392.43-10.47 392.56-12.15 392.69-13.82 392.69-15.26L392.69-15.26Q392.69-16.21 392.62-17.3 392.55-18.38 392.32-19.47 392.08-20.56 391.69-21.56 391.3-22.56 390.66-23.32 390.01-24.07 389.09-24.54 388.18-25 386.93-25L386.93-25Q385.71-25 384.76-24.45 383.81-23.9 383.08-23.01 382.34-22.12 381.82-20.97 381.29-19.82 380.96-18.62 380.63-17.41 380.49-16.24 380.34-15.06 380.34-14.14L380.34-14.14 380.34 0 372.06 0 372.06-28.2 375.24-28.2 379.02-21.63Q379.71-23.27 380.73-24.61 381.76-25.95 383.05-26.9 384.35-27.86 385.92-28.37 387.49-28.88 389.33-28.88L389.33-28.88Q392.26-28.88 394.43-27.93 396.6-26.98 398.04-25.28 399.48-23.58 400.19-21.25 400.9-18.92 400.9-16.16ZM431.68-28.2L420.57 0 413.15 0 402.9-28.2 411.15-28.2 418.67-5.74 425.97-28.2 431.68-28.2ZM441.4-13.38L441.4-13.38Q442.91-13.04 444.42-12.84 445.94-12.65 447.47-12.65L447.47-12.65Q449.09-12.65 450.47-12.95 451.84-13.26 452.86-13.98 453.87-14.7 454.46-15.89 455.04-17.09 455.04-18.87L455.04-18.87Q455.04-20.31 454.65-21.51 454.26-22.71 453.49-23.56 452.72-24.41 451.6-24.89 450.48-25.37 448.99-25.37L448.99-25.37Q447.6-25.37 446.49-24.85 445.38-24.34 444.53-23.47 443.69-22.61 443.09-21.46 442.49-20.31 442.1-19.07 441.71-17.82 441.54-16.55 441.37-15.28 441.37-14.16L441.37-14.16Q441.37-13.96 441.37-13.77 441.37-13.57 441.4-13.38ZM461.73-18.95L461.73-18.95Q461.73-17.21 461.17-15.86 460.61-14.5 459.65-13.48 458.68-12.45 457.41-11.74 456.14-11.04 454.7-10.58 453.26-10.13 451.74-9.94 450.21-9.74 448.77-9.74L448.77-9.74Q446.94-9.74 445.16-10 443.37-10.25 441.64-10.82L441.64-10.82Q441.91-9.2 442.49-7.75 443.08-6.3 444.06-5.21 445.03-4.13 446.46-3.49 447.89-2.86 449.84-2.86L449.84-2.86Q451.14-2.86 452.31-3.25 453.48-3.64 454.46-4.35 455.43-5.05 456.18-6.03 456.92-7.01 457.39-8.2L457.39-8.2 460.95-6.88Q460.15-4.96 458.74-3.55 457.34-2.15 455.57-1.23 453.8-0.32 451.81 0.12 449.82 0.56 447.87 0.56L447.87 0.56Q444.64 0.56 441.91-0.52 439.17-1.61 437.2-3.56 435.22-5.52 434.1-8.23 432.97-10.94 432.97-14.16L432.97-14.16Q432.97-17.38 434.1-20.09 435.22-22.8 437.2-24.76 439.17-26.71 441.91-27.8 444.64-28.88 447.87-28.88L447.87-28.88Q449.43-28.88 451.06-28.66 452.7-28.44 454.24-27.97 455.78-27.49 457.14-26.73 458.51-25.98 459.52-24.87 460.54-23.75 461.13-22.29 461.73-20.83 461.73-18.95ZM495.71-16.16L495.71-16.16Q495.71-13.31 495.02-10.21 494.32-7.1 493.08-4.13 491.83-1.15 490.1 1.48 488.37 4.1 486.29 6.01L486.29 6.01 483.19 4.32Q483.85 3.1 484.44 1.59 485.02 0.07 485.5-1.62 485.97-3.32 486.35-5.13 486.73-6.93 486.99-8.7 487.24-10.47 487.38-12.15 487.51-13.82 487.51-15.26L487.51-15.26Q487.51-16.21 487.44-17.3 487.36-18.38 487.13-19.47 486.9-20.56 486.51-21.56 486.12-22.56 485.47-23.32 484.83-24.07 483.91-24.54 482.99-25 481.75-25L481.75-25Q480.53-25 479.58-24.45 478.62-23.9 477.89-23.01 477.16-22.12 476.63-20.97 476.11-19.82 475.78-18.62 475.45-17.41 475.3-16.24 475.16-15.06 475.16-14.14L475.16-14.14 475.16 0 466.88 0 466.88-28.2 470.06-28.2 473.84-21.63Q474.52-23.27 475.55-24.61 476.57-25.95 477.87-26.9 479.16-27.86 480.74-28.37 482.31-28.88 484.14-28.88L484.14-28.88Q487.07-28.88 489.24-27.93 491.42-26.98 492.86-25.28 494.3-23.58 495.01-21.25 495.71-18.92 495.71-16.16ZM509.82-35.01L509.82-35.01Q509.82-34.08 509.47-33.25 509.12-32.42 508.5-31.81 507.89-31.2 507.06-30.85 506.23-30.49 505.31-30.49L505.31-30.49Q504.38-30.49 503.56-30.85 502.74-31.2 502.13-31.81 501.52-32.42 501.17-33.25 500.81-34.08 500.81-35.01L500.81-35.01Q500.81-35.94 501.17-36.76 501.52-37.57 502.13-38.18 502.74-38.79 503.56-39.15 504.38-39.5 505.31-39.5L505.31-39.5Q506.23-39.5 507.06-39.15 507.89-38.79 508.5-38.18 509.12-37.57 509.47-36.76 509.82-35.94 509.82-35.01ZM509.46-28.17L509.46 0 501.18 0 501.18-28.17 509.46-28.17ZM523.15-13.38L523.15-13.38Q524.66-13.04 526.18-12.84 527.69-12.65 529.23-12.65L529.23-12.65Q530.84-12.65 532.22-12.95 533.6-13.26 534.61-13.98 535.63-14.7 536.21-15.89 536.8-17.09 536.8-18.87L536.8-18.87Q536.8-20.31 536.41-21.51 536.02-22.71 535.25-23.56 534.48-24.41 533.36-24.89 532.23-25.37 530.74-25.37L530.74-25.37Q529.35-25.37 528.24-24.85 527.13-24.34 526.29-23.47 525.45-22.61 524.85-21.46 524.25-20.31 523.86-19.07 523.47-17.82 523.3-16.55 523.13-15.28 523.13-14.16L523.13-14.16Q523.13-13.96 523.13-13.77 523.13-13.57 523.15-13.38ZM543.49-18.95L543.49-18.95Q543.49-17.21 542.93-15.86 542.36-14.5 541.4-13.48 540.44-12.45 539.17-11.74 537.9-11.04 536.46-10.58 535.02-10.13 533.49-9.94 531.96-9.74 530.52-9.74L530.52-9.74Q528.69-9.74 526.91-10 525.13-10.25 523.39-10.82L523.39-10.82Q523.66-9.2 524.25-7.75 524.84-6.3 525.81-5.21 526.79-4.13 528.22-3.49 529.64-2.86 531.6-2.86L531.6-2.86Q532.89-2.86 534.06-3.25 535.24-3.64 536.21-4.35 537.19-5.05 537.93-6.03 538.68-7.01 539.14-8.2L539.14-8.2 542.71-6.88Q541.9-4.96 540.5-3.55 539.09-2.15 537.32-1.23 535.55-0.32 533.56 0.12 531.57 0.56 529.62 0.56L529.62 0.56Q526.4 0.56 523.66-0.52 520.93-1.61 518.95-3.56 516.97-5.52 515.85-8.23 514.73-10.94 514.73-14.16L514.73-14.16Q514.73-17.38 515.85-20.09 516.97-22.8 518.95-24.76 520.93-26.71 523.66-27.8 526.4-28.88 529.62-28.88L529.62-28.88Q531.18-28.88 532.82-28.66 534.45-28.44 535.99-27.97 537.53-27.49 538.9-26.73 540.27-25.98 541.28-24.87 542.29-23.75 542.89-22.29 543.49-20.83 543.49-18.95ZM577.47-16.16L577.47-16.16Q577.47-13.31 576.77-10.21 576.08-7.1 574.83-4.13 573.59-1.15 571.85 1.48 570.12 4.1 568.05 6.01L568.05 6.01 564.95 4.32Q565.6 3.1 566.19 1.59 566.78 0.07 567.25-1.62 567.73-3.32 568.11-5.13 568.49-6.93 568.74-8.7 569-10.47 569.13-12.15 569.27-13.82 569.27-15.26L569.27-15.26Q569.27-16.21 569.19-17.3 569.12-18.38 568.89-19.47 568.66-20.56 568.27-21.56 567.87-22.56 567.23-23.32 566.58-24.07 565.67-24.54 564.75-25 563.5-25L563.5-25Q562.28-25 561.33-24.45 560.38-23.9 559.65-23.01 558.91-22.12 558.39-20.97 557.87-19.82 557.54-18.62 557.21-17.41 557.06-16.24 556.91-15.06 556.91-14.14L556.91-14.14 556.91 0 548.64 0 548.64-28.2 551.81-28.2 555.59-21.63Q556.28-23.27 557.3-24.61 558.33-25.95 559.62-26.9 560.92-27.86 562.49-28.37 564.07-28.88 565.9-28.88L565.9-28.88Q568.83-28.88 571-27.93 573.17-26.98 574.61-25.28 576.05-23.58 576.76-21.25 577.47-18.92 577.47-16.16ZM608.94-21.22L608.94-21.22 605.37-19.8Q604.52-22.49 602.52-23.93 600.51-25.37 597.71-25.37L597.71-25.37Q596.19-25.37 595.01-24.89 593.82-24.41 592.93-23.58 592.04-22.75 591.42-21.66 590.8-20.56 590.41-19.31 590.02-18.07 589.85-16.74 589.67-15.41 589.67-14.16L589.67-14.16Q589.67-12.82 589.82-11.45 589.97-10.08 590.32-8.83 590.68-7.57 591.26-6.48 591.85-5.4 592.74-4.59 593.63-3.78 594.86-3.32 596.1-2.86 597.71-2.86L597.71-2.86Q599-2.86 600.17-3.25 601.34-3.64 602.32-4.35 603.3-5.05 604.05-6.03 604.81-7.01 605.25-8.2L605.25-8.2 608.84-6.88Q608.03-4.96 606.7-3.55 605.37-2.15 603.69-1.23 602-0.32 600.07 0.12 598.15 0.56 596.17 0.56L596.17 0.56Q592.97 0.56 590.24-0.52 587.5-1.61 585.51-3.58 583.52-5.54 582.4-8.24 581.28-10.94 581.28-14.16L581.28-14.16Q581.28-17.41 582.39-20.12 583.5-22.83 585.47-24.78 587.45-26.73 590.19-27.81 592.92-28.88 596.17-28.88L596.17-28.88Q598.22-28.88 600.17-28.43 602.13-27.98 603.8-27.04 605.47-26.1 606.8-24.66 608.13-23.22 608.94-21.22ZM620.6-13.38L620.6-13.38Q622.12-13.04 623.63-12.84 625.15-12.65 626.68-12.65L626.68-12.65Q628.29-12.65 629.67-12.95 631.05-13.26 632.07-13.98 633.08-14.7 633.67-15.89 634.25-17.09 634.25-18.87L634.25-18.87Q634.25-20.31 633.86-21.51 633.47-22.71 632.7-23.56 631.93-24.41 630.81-24.89 629.69-25.37 628.2-25.37L628.2-25.37Q626.81-25.37 625.69-24.85 624.58-24.34 623.74-23.47 622.9-22.61 622.3-21.46 621.7-20.31 621.31-19.07 620.92-17.82 620.75-16.55 620.58-15.28 620.58-14.16L620.58-14.16Q620.58-13.96 620.58-13.77 620.58-13.57 620.6-13.38ZM640.94-18.95L640.94-18.95Q640.94-17.21 640.38-15.86 639.82-14.5 638.85-13.48 637.89-12.45 636.62-11.74 635.35-11.04 633.91-10.58 632.47-10.13 630.94-9.94 629.42-9.74 627.98-9.74L627.98-9.74Q626.15-9.74 624.36-10 622.58-10.25 620.85-10.82L620.85-10.82Q621.12-9.2 621.7-7.75 622.29-6.3 623.27-5.21 624.24-4.13 625.67-3.49 627.1-2.86 629.05-2.86L629.05-2.86Q630.35-2.86 631.52-3.25 632.69-3.64 633.67-4.35 634.64-5.05 635.39-6.03 636.13-7.01 636.6-8.2L636.6-8.2 640.16-6.88Q639.35-4.96 637.95-3.55 636.55-2.15 634.78-1.23 633.01-0.32 631.02 0.12 629.03 0.56 627.07 0.56L627.07 0.56Q623.85 0.56 621.12-0.52 618.38-1.61 616.41-3.56 614.43-5.52 613.3-8.23 612.18-10.94 612.18-14.16L612.18-14.16Q612.18-17.38 613.3-20.09 614.43-22.8 616.41-24.76 618.38-26.71 621.12-27.8 623.85-28.88 627.07-28.88L627.07-28.88Q628.64-28.88 630.27-28.66 631.91-28.44 633.45-27.97 634.98-27.49 636.35-26.73 637.72-25.98 638.73-24.87 639.74-23.75 640.34-22.29 640.94-20.83 640.94-18.95Z" opacity="1" transform="matrix(1,0,0,1,0,0)" fill="#000000" class="slogan-text-1" data-fill-palette-color="secondary" id="text-1"></path></svg></g></svg></g></svg></g></svg></g><g transform="matrix(1,0,0,1,411.19356088301146,0)"><svg viewBox="0 0 177.90332659728176 139.78355397488238" height="139.78355397488238" width="177.90332659728176"><g><svg xmlns="http://www.w3.org/2000/svg" xmlns:xlink="http://www.w3.org/1999/xlink" version="1.1" x="0" y="0" viewBox="0 11.714 99.99903264666858 78.572" enable-background="new 0 0 100 100" xml:space="preserve" height="139.78355397488238" width="177.90332659728176" class="icon-icon-0" data-fill-palette-color="accent" id="icon-0"><path d="M92.857 18.857V26H85.714V18.857zM92.857 33.143V40.286H85.714V33.143zM92.857 47.429V54.572H85.714V47.429zM92.857 61.714V68.857H85.714V61.714zM92.857 76V83.143H85.714V76zM78.571 18.857V83.143H21.429V18.857zM14.286 18.857V26H7.143V18.857zM14.286 33.143V40.286H7.143V33.143zM14.286 47.429V54.572H7.143V47.429zM14.286 61.714V68.857H7.143V61.714zM14.286 76V83.143H7.143V76zM96.429 11.714H3.571C0 11.714 0 11.714 0 15.286V86.715C0 90.286 0 90.286 3.571 90.286H96.428C99.999 90.286 99.999 90.286 99.999 86.715V15.286C100 11.714 100 11.714 96.429 11.714" fill="#000000" data-fill-palette-color="accent"></path></svg></g></svg></g></svg></g><defs></defs></svg><rect width="395.52" height="93.85076112797316" fill="none" stroke="none" visibility="hidden"></rect></g></svg></g></svg>